 <svg  version="1.0" xmlns="http://www.w3.org/2000/svg"  width="300.000000pt" height="300.000000pt" viewBox="0 0 300.000000 300.000000"  preserveAspectRatio="xMidYMid meet">  <g transform="translate(0.000000,300.000000) scale(0.100000,-0.100000)" fill="#e01b24" stroke="none"> <path d="M2185 2174 c-68 -11 -84 -17 -107 -44 -16 -16 -28 -39 -28 -49 0 -22 34 -67 63 -82 22 -12 138 -42 143 -37 6 6 20 220 14 222 -3 2 -41 -3 -85 -10z m40 -55 c4 -6 4 -31 0 -56 l-7 -45 -40 5 c-73 10 -102 67 -48 94 31 16 86 17 95 2z"/> <path d="M2346 2138 c-3 -29 -8 -83 -11 -120 l-6 -67 33 -5 c232 -40 261 -43 293 -36 36 8 60 23 82 50 19 23 15 91 -7 127 -36 60 -162 103 -302 103 l-77 0 -5 -52z m254 -14 c100 -30 142 -107 84 -153 -33 -26 -85 -27 -209 -3 l-90 17 -3 50 c-2 27 0 65 3 84 l6 34 78 -7 c43 -3 102 -13 131 -22z"/> <path d="M1875 1697 c-30 -17 -204 -139 -233 -163 -3 -2 80 -153 94 -172 1 -2 15 3 31 11 15 8 64 27 107 41 104 34 153 67 177 119 23 51 24 79 4 117 -36 70 -107 89 -180 47z m122 -39 c11 -13 24 -33 27 -45 9 -29 -19 -88 -53 -112 -34 -24 -201 -83 -217 -77 -17 7 -57 85 -51 100 3 7 53 45 111 84 116 78 149 87 183 50z"/> <path d="M929 1577 c-83 -42 -219 -136 -219 -151 0 -7 14 -25 30 -41 17 -16 45 -51 62 -78 17 -26 36 -46 42 -43 6 2 63 26 126 51 180 73 210 99 210 182 0 108 -119 146 -251 80z m185 -28 c37 -29 36 -78 -3 -116 -26 -26 -222 -113 -255 -113 -13 0 -86 86 -86 102 0 18 136 104 215 135 48 18 99 15 129 -8z"/> <path d="M1565 1481 c-3 -6 -24 -11 -46 -11 -30 0 -46 -6 -64 -26 -54 -58 -16 -144 63 -144 31 0 127 24 141 36 3 3 -49 99 -75 137 -7 12 -14 15 -19 8z m15 -83 c10 -17 17 -35 15 -39 -7 -11 -74 -21 -95 -14 -50 16 -24 85 32 85 21 0 33 -8 48 -32z"/> <path d="M603 1336 c-48 -54 -59 -95 -38 -136 36 -69 120 -67 175 3 l22 28 -27 39 c-15 21 -41 56 -59 76 l-32 37 -41 -47z m76 -55 c27 -37 26 -56 -1 -75 -28 -20 -43 -20 -62 0 -20 20 -20 53 0 82 21 30 39 28 63 -7z"/> <path d="M828 885 c-14 -8 -49 -46 -76 -84 -28 -38 -71 -85 -95 -106 l-44 -36 44 -90 43 -89 37 15 c137 57 262 194 263 288 0 87 -94 144 -172 102z m112 -51 c27 -26 16 -90 -26 -152 -41 -59 -154 -145 -183 -140 -9 2 -27 24 -41 50 l-25 47 41 43 c22 24 58 67 79 97 54 76 112 96 155 55z"/> <path d="M503 601 c-69 -50 -81 -94 -38 -136 30 -31 101 -35 135 -7 l22 18 -39 77 -39 78 -41 -30z m43 -66 c19 -29 12 -55 -14 -55 -22 0 -42 19 -42 40 0 17 18 40 32 40 4 0 15 -11 24 -25z"/> </g> </svg> 